<svg width="18" height="18" viewBox="0 0 18 18" fill="none" xmlns="http://www.w3.org/2000/svg">
    <path d="M15.8836 7.22813C15.6164 6.95391 15.3422 6.66563 15.2367 6.41953C15.1312 6.17344 15.1383 5.80781 15.1312 5.43516C15.1242 4.75313 15.1102 3.97266 14.5687 3.43125C14.0273 2.88984 13.2469 2.87578 12.5648 2.86875C12.1922 2.86172 11.8125 2.85469 11.5805 2.76328C11.3484 2.67187 11.0461 2.38359 10.7719 2.11641C10.2867 1.65234 9.73125 1.125 9 1.125C8.26875 1.125 7.71328 1.65234 7.22813 2.11641C6.95391 2.38359 6.66563 2.65781 6.41953 2.76328C6.17344 2.86875 5.80781 2.86172 5.43516 2.86875C4.75313 2.87578 3.97266 2.88984 3.43125 3.43125C2.88984 3.97266 2.87578 4.75313 2.86875 5.43516C2.86172 5.80781 2.85469 6.1875 2.76328 6.41953C2.67187 6.65156 2.38359 6.95391 2.11641 7.22813C1.65234 7.71328 1.125 8.26875 1.125 9C1.125 9.73125 1.65234 10.2867 2.11641 10.7719C2.38359 11.0461 2.65781 11.3344 2.76328 11.5805C2.86875 11.8266 2.86172 12.1922 2.86875 12.5648C2.87578 13.2469 2.88984 14.0273 3.43125 14.5687C3.97266 15.1102 4.75313 15.1242 5.43516 15.1312C5.80781 15.1383 6.1875 15.1453 6.41953 15.2367C6.65156 15.3281 6.95391 15.6164 7.22813 15.8836C7.71328 16.3477 8.26875 16.875 9 16.875C9.73125 16.875 10.2867 16.3477 10.7719 15.8836C11.0461 15.6164 11.3344 15.3422 11.5805 15.2367C11.8266 15.1312 12.1922 15.1383 12.5648 15.1312C13.2469 15.1242 14.0273 15.1102 14.5687 14.5687C15.1102 14.0273 15.1242 13.2469 15.1312 12.5648C15.1383 12.1922 15.1453 11.8125 15.2367 11.5805C15.3281 11.3484 15.6164 11.0461 15.8836 10.7719C16.3477 10.2867 16.875 9.73125 16.875 9C16.875 8.26875 16.3477 7.71328 15.8836 7.22813Z" fill="#35D487"/>
    <path d="M8.36023 11.6579L12.4805 7.72038C12.5816 7.61623 12.6386 7.47703 12.6394 7.33188C12.6402 7.18674 12.5849 7.04688 12.4851 6.94156C12.3852 6.83624 12.2485 6.7736 12.1035 6.76674C11.9585 6.75988 11.8165 6.80933 11.7071 6.90475L7.96648 10.4696L6.29304 8.8735C6.24023 8.81909 6.17696 8.77591 6.10703 8.74658C6.0371 8.71724 5.96197 8.70234 5.88614 8.70278C5.81031 8.70322 5.73535 8.71899 5.66577 8.74914C5.59619 8.77929 5.53342 8.82319 5.48124 8.87822C5.42906 8.93324 5.38855 8.99825 5.36213 9.06933C5.33572 9.14042 5.32395 9.21611 5.32753 9.29185C5.33112 9.3676 5.34998 9.44184 5.38299 9.51011C5.41599 9.57838 5.46247 9.63928 5.51961 9.68913L7.57976 11.6579C7.68373 11.7576 7.82239 11.8131 7.96648 11.8126C8.11273 11.8135 8.25371 11.7581 8.36023 11.6579Z" fill="white"/>
</svg>
